<mxfile host="Electron" modified="2024-02-09T13:10:44.128Z" agent="Mozilla/5.0 (Windows NT 10.0; Win64; x64) AppleWebKit/537.36 (KHTML, like Gecko) draw.io/23.0.2 Chrome/120.0.6099.109 Electron/28.1.0 Safari/537.36" etag="THqtrgBW17utXyzkyx6U" version="23.0.2" type="device">
  <diagram name="Page-1" id="7AsIZ7y1OgeDKeRv0Alw">
    <mxGraphModel dx="1327" dy="1080" grid="1" gridSize="10" guides="1" tooltips="1" connect="1" arrows="1" fold="1" page="0" pageScale="1" pageWidth="850" pageHeight="1100" math="0" shadow="0">
      <root>
        <mxCell id="0" />
        <mxCell id="1" parent="0" />
        <mxCell id="PTJmnlnuLZTd9KA6_roe-14" value="" style="html=1;verticalLabelPosition=bottom;align=center;labelBackgroundColor=#ffffff;verticalAlign=top;strokeWidth=2;strokeColor=#FFE599;shadow=0;dashed=0;shape=mxgraph.ios7.icons.document;fontSize=16;container=0;" parent="1" vertex="1">
          <mxGeometry x="160" y="-240" width="120" height="180" as="geometry" />
        </mxCell>
        <mxCell id="PTJmnlnuLZTd9KA6_roe-15" value="hyperlink" style="text;html=1;strokeColor=none;fillColor=none;align=center;verticalAlign=middle;whiteSpace=wrap;rounded=1;fontSize=16;fontFamily=consolas;arcSize=30;container=0;fontStyle=4;fontColor=#0099CC;" parent="1" vertex="1">
          <mxGeometry x="171.47058823529412" y="-197.4384236453202" width="82.05882352941177" height="26.60098522167488" as="geometry" />
        </mxCell>
        <mxCell id="PTJmnlnuLZTd9KA6_roe-16" value="hyperlink" style="text;html=1;strokeColor=none;fillColor=none;align=center;verticalAlign=middle;whiteSpace=wrap;rounded=1;fontSize=16;fontFamily=consolas;arcSize=30;container=0;fontStyle=4;fontColor=#0099CC;" parent="1" vertex="1">
          <mxGeometry x="185.58823529411765" y="-125.61576354679802" width="82.05882352941177" height="26.60098522167488" as="geometry" />
        </mxCell>
        <mxCell id="EnKgvqZWyX2y27-WiOXe-1" value="" style="html=1;verticalLabelPosition=bottom;align=center;labelBackgroundColor=#ffffff;verticalAlign=top;strokeWidth=2;strokeColor=#FFE599;shadow=0;dashed=0;shape=mxgraph.ios7.icons.document;fontSize=16;container=0;" vertex="1" parent="1">
          <mxGeometry y="-117.44" width="120" height="180" as="geometry" />
        </mxCell>
        <mxCell id="EnKgvqZWyX2y27-WiOXe-2" value="hyperlink" style="text;html=1;strokeColor=none;fillColor=none;align=center;verticalAlign=middle;whiteSpace=wrap;rounded=1;fontSize=16;fontFamily=consolas;arcSize=30;container=0;fontStyle=4;fontColor=#0099CC;" vertex="1" parent="1">
          <mxGeometry x="25.590588235294113" y="-74.8784236453202" width="82.05882352941177" height="26.60098522167488" as="geometry" />
        </mxCell>
        <mxCell id="EnKgvqZWyX2y27-WiOXe-3" value="hyperlink" style="text;html=1;strokeColor=none;fillColor=none;align=center;verticalAlign=middle;whiteSpace=wrap;rounded=1;fontSize=16;fontFamily=consolas;arcSize=30;container=0;fontStyle=4;fontColor=#0099CC;" vertex="1" parent="1">
          <mxGeometry x="25.588235294117652" y="30.004236453201976" width="82.05882352941177" height="26.60098522167488" as="geometry" />
        </mxCell>
        <mxCell id="EnKgvqZWyX2y27-WiOXe-4" value="" style="html=1;verticalLabelPosition=bottom;align=center;labelBackgroundColor=#ffffff;verticalAlign=top;strokeWidth=2;strokeColor=#FFE599;shadow=0;dashed=0;shape=mxgraph.ios7.icons.document;fontSize=16;container=0;" vertex="1" parent="1">
          <mxGeometry x="323.53" y="-202.32" width="120" height="180" as="geometry" />
        </mxCell>
        <mxCell id="EnKgvqZWyX2y27-WiOXe-6" value="hyperlink" style="text;html=1;strokeColor=none;fillColor=none;align=center;verticalAlign=middle;whiteSpace=wrap;rounded=1;fontSize=16;fontFamily=consolas;arcSize=30;container=0;fontStyle=4;fontColor=#0099CC;" vertex="1" parent="1">
          <mxGeometry x="349.11823529411765" y="-87.93576354679803" width="82.05882352941177" height="26.60098522167488" as="geometry" />
        </mxCell>
        <mxCell id="EnKgvqZWyX2y27-WiOXe-7" value="" style="html=1;verticalLabelPosition=bottom;align=center;labelBackgroundColor=#ffffff;verticalAlign=top;strokeWidth=2;strokeColor=#FFE599;shadow=0;dashed=0;shape=mxgraph.ios7.icons.document;fontSize=16;container=0;" vertex="1" parent="1">
          <mxGeometry x="203.53" width="120" height="180" as="geometry" />
        </mxCell>
        <mxCell id="EnKgvqZWyX2y27-WiOXe-8" value="hyperlink" style="text;html=1;strokeColor=none;fillColor=none;align=center;verticalAlign=middle;whiteSpace=wrap;rounded=1;fontSize=16;fontFamily=consolas;arcSize=30;container=0;fontStyle=4;fontColor=#0099CC;" vertex="1" parent="1">
          <mxGeometry x="215.00058823529412" y="56.6015763546798" width="82.05882352941177" height="26.60098522167488" as="geometry" />
        </mxCell>
        <mxCell id="EnKgvqZWyX2y27-WiOXe-9" value="hyperlink" style="text;html=1;strokeColor=none;fillColor=none;align=center;verticalAlign=middle;whiteSpace=wrap;rounded=1;fontSize=16;fontFamily=consolas;arcSize=30;container=0;fontStyle=4;fontColor=#0099CC;" vertex="1" parent="1">
          <mxGeometry x="214.99823529411765" y="130.004236453202" width="82.05882352941177" height="26.60098522167488" as="geometry" />
        </mxCell>
        <mxCell id="EnKgvqZWyX2y27-WiOXe-10" value="" style="endArrow=classic;html=1;rounded=0;fontSize=12;startSize=8;endSize=8;curved=1;exitX=0;exitY=0.5;exitDx=0;exitDy=0;entryX=0.696;entryY=0.014;entryDx=0;entryDy=0;entryPerimeter=0;strokeWidth=2;strokeColor=#FF0000;" edge="1" parent="1" source="PTJmnlnuLZTd9KA6_roe-15" target="EnKgvqZWyX2y27-WiOXe-1">
          <mxGeometry width="50" height="50" relative="1" as="geometry">
            <mxPoint x="190" as="sourcePoint" />
            <mxPoint x="90" y="-184" as="targetPoint" />
          </mxGeometry>
        </mxCell>
        <mxCell id="EnKgvqZWyX2y27-WiOXe-11" value="" style="endArrow=classic;html=1;rounded=0;fontSize=12;startSize=8;endSize=8;curved=1;exitX=1;exitY=0.5;exitDx=0;exitDy=0;strokeWidth=2;strokeColor=#FF0000;entryX=-0.009;entryY=0.008;entryDx=0;entryDy=0;entryPerimeter=0;" edge="1" parent="1" source="EnKgvqZWyX2y27-WiOXe-3" target="EnKgvqZWyX2y27-WiOXe-7">
          <mxGeometry width="50" height="50" relative="1" as="geometry">
            <mxPoint x="181" y="-161" as="sourcePoint" />
            <mxPoint x="200" y="40" as="targetPoint" />
          </mxGeometry>
        </mxCell>
        <mxCell id="EnKgvqZWyX2y27-WiOXe-12" value="hyperlink" style="text;html=1;strokeColor=none;fillColor=none;align=center;verticalAlign=middle;whiteSpace=wrap;rounded=1;fontSize=16;fontFamily=consolas;arcSize=30;container=0;fontStyle=4;fontColor=#0099CC;" vertex="1" parent="1">
          <mxGeometry x="11.468235294117651" y="-26.605763546798023" width="82.05882352941177" height="26.60098522167488" as="geometry" />
        </mxCell>
        <mxCell id="EnKgvqZWyX2y27-WiOXe-13" value="" style="endArrow=classic;html=1;rounded=0;fontSize=12;startSize=8;endSize=8;curved=1;exitX=1;exitY=0.5;exitDx=0;exitDy=0;entryX=0.3;entryY=0.01;entryDx=0;entryDy=0;entryPerimeter=0;strokeWidth=2;strokeColor=#FF0000;" edge="1" parent="1" source="PTJmnlnuLZTd9KA6_roe-16">
          <mxGeometry width="50" height="50" relative="1" as="geometry">
            <mxPoint x="278" y="-116" as="sourcePoint" />
            <mxPoint x="370" y="-191" as="targetPoint" />
          </mxGeometry>
        </mxCell>
        <mxCell id="EnKgvqZWyX2y27-WiOXe-16" value="" style="endArrow=classic;html=1;rounded=0;fontSize=12;startSize=8;endSize=8;curved=1;exitX=0;exitY=0.5;exitDx=0;exitDy=0;entryX=0.712;entryY=0.019;entryDx=0;entryDy=0;entryPerimeter=0;strokeWidth=2;strokeColor=#FF0000;" edge="1" parent="1" source="EnKgvqZWyX2y27-WiOXe-6" target="EnKgvqZWyX2y27-WiOXe-7">
          <mxGeometry width="50" height="50" relative="1" as="geometry">
            <mxPoint x="308" y="-86" as="sourcePoint" />
            <mxPoint x="400" y="-161" as="targetPoint" />
          </mxGeometry>
        </mxCell>
        <mxCell id="EnKgvqZWyX2y27-WiOXe-17" value="" style="endArrow=classic;html=1;rounded=0;fontSize=12;startSize=8;endSize=8;curved=1;exitX=1;exitY=0.5;exitDx=0;exitDy=0;entryX=-0.009;entryY=0.852;entryDx=0;entryDy=0;entryPerimeter=0;strokeWidth=2;strokeColor=#FF0000;" edge="1" parent="1" source="EnKgvqZWyX2y27-WiOXe-2" target="EnKgvqZWyX2y27-WiOXe-4">
          <mxGeometry width="50" height="50" relative="1" as="geometry">
            <mxPoint x="318" y="-76" as="sourcePoint" />
            <mxPoint x="410" y="-151" as="targetPoint" />
          </mxGeometry>
        </mxCell>
        <mxCell id="EnKgvqZWyX2y27-WiOXe-18" value="" style="endArrow=classic;html=1;rounded=0;fontSize=12;startSize=8;endSize=8;curved=1;exitX=1;exitY=0.5;exitDx=0;exitDy=0;strokeWidth=2;strokeColor=#FF0000;" edge="1" parent="1" source="EnKgvqZWyX2y27-WiOXe-12" target="PTJmnlnuLZTd9KA6_roe-14">
          <mxGeometry width="50" height="50" relative="1" as="geometry">
            <mxPoint x="328" y="-66" as="sourcePoint" />
            <mxPoint x="420" y="-141" as="targetPoint" />
          </mxGeometry>
        </mxCell>
        <mxCell id="EnKgvqZWyX2y27-WiOXe-19" value="hyperlink" style="text;html=1;strokeColor=none;fillColor=none;align=center;verticalAlign=middle;whiteSpace=wrap;rounded=1;fontSize=16;fontFamily=consolas;arcSize=30;container=0;fontStyle=4;fontColor=#0099CC;" vertex="1" parent="1">
          <mxGeometry x="214.99823529411765" y="90.00423645320198" width="82.05882352941177" height="26.60098522167488" as="geometry" />
        </mxCell>
        <mxCell id="EnKgvqZWyX2y27-WiOXe-22" value="" style="endArrow=classic;html=1;rounded=0;fontSize=12;startSize=8;endSize=8;curved=1;entryX=0.971;entryY=0.999;entryDx=0;entryDy=0;entryPerimeter=0;strokeWidth=2;strokeColor=#FF0000;exitX=1;exitY=0.5;exitDx=0;exitDy=0;" edge="1" parent="1" source="EnKgvqZWyX2y27-WiOXe-9" target="EnKgvqZWyX2y27-WiOXe-4">
          <mxGeometry width="50" height="50" relative="1" as="geometry">
            <mxPoint x="350" y="160" as="sourcePoint" />
            <mxPoint x="420" y="-141" as="targetPoint" />
          </mxGeometry>
        </mxCell>
        <mxCell id="EnKgvqZWyX2y27-WiOXe-23" value="" style="endArrow=classic;html=1;rounded=0;fontSize=12;startSize=8;endSize=8;curved=1;exitX=0;exitY=0.5;exitDx=0;exitDy=0;entryX=0.983;entryY=1.014;entryDx=0;entryDy=0;entryPerimeter=0;strokeWidth=2;strokeColor=#FF0000;" edge="1" parent="1" source="EnKgvqZWyX2y27-WiOXe-19" target="EnKgvqZWyX2y27-WiOXe-1">
          <mxGeometry width="50" height="50" relative="1" as="geometry">
            <mxPoint x="338" y="-56" as="sourcePoint" />
            <mxPoint x="430" y="-131" as="targetPoint" />
          </mxGeometry>
        </mxCell>
        <mxCell id="EnKgvqZWyX2y27-WiOXe-24" value="" style="endArrow=classic;html=1;rounded=0;fontSize=12;startSize=8;endSize=8;curved=1;exitX=0.25;exitY=0;exitDx=0;exitDy=0;strokeWidth=2;strokeColor=#FF0000;entryX=1.013;entryY=0.978;entryDx=0;entryDy=0;entryPerimeter=0;" edge="1" parent="1" source="EnKgvqZWyX2y27-WiOXe-8" target="PTJmnlnuLZTd9KA6_roe-14">
          <mxGeometry width="50" height="50" relative="1" as="geometry">
            <mxPoint x="348" y="-46" as="sourcePoint" />
            <mxPoint x="440" y="-121" as="targetPoint" />
          </mxGeometry>
        </mxCell>
      </root>
    </mxGraphModel>
  </diagram>
</mxfile>
